<!-- <svg width="850" height="900" xmlns="http://www.w3.org/2000/svg" class="icon">
 <defs>
  <style type="text/css"/>
 </defs>
 <g>
  <title>background</title>
  <rect fill="none" id="canvas_background" height="902" width="852" y="-1" x="-1"/>
 </g>
 <g>
  <title>Layer 1</title>
  <path id="svg_1" d="m547.549469,1.798887l0,511.97544c0,17.672498 14.326287,31.998785 31.998785,31.998785s31.998785,-14.326287 31.998785,-31.998785l0,-511.97544l127.994116,0c53.016471,0 95.995331,42.97886 95.995331,95.995331l0,543.974225c0,53.016471 -42.97886,95.995331 -95.995331,95.995331l-623.971188,0c-26.508747,0 -47.998177,21.48943 -47.998177,47.998178s21.48943,47.998177 47.998177,47.998177l703.966103,0c17.672498,0 31.998785,14.326287 31.998785,31.998785s-14.326287,31.998785 -31.998785,31.998785l-703.966103,0c-56.421011,0 -111.994724,-39.997969 -111.994723,-95.995332l0,-703.968149c0,-53.016471 42.97886,-95.995331 95.995331,-95.995331l447.978894,0z"/>
 </g>
</svg> -->
<?xml version="1.0" encoding="utf-8"?>
<!-- Generator: Adobe Illustrator 24.1.0, SVG Export Plug-In . SVG Version: 6.00 Build 0)  -->
<svg version="1.1" id="图层_1" xmlns="http://www.w3.org/2000/svg" xmlns:xlink="http://www.w3.org/1999/xlink" x="0px" y="0px"
	 viewBox="0 0 200 200" style="enable-background:new 0 0 200 200;" xml:space="preserve">
<style type="text/css">
	.st0{fill:#FFFFFF;}
</style>
<g>
	<path class="st0" d="M214.5,83.6l-28.4-27.3c-5.6-5.6-13.2-8.7-21.2-8.7h-15.2V31.4c0-17.2-13.9-31.1-31.1-31.1l0,0H6.7
		c-17.2,0-31.1,13.9-31.1,31.1v112c0,17.2,13.9,31.1,31.1,31.1h0h9.6c3.4,16.8,19.8,27.7,36.7,24.3c12.2-2.5,21.8-12.1,24.3-24.3h61
		c3,16.9,19.1,28.2,36,25.3c12.9-2.3,23-12.4,25.3-25.3h6.2c10.3,0,18.7-8.4,18.7-18.7v-48.4C224.5,98.5,220.9,89.9,214.5,83.6
		L214.5,83.6z M149.8,59.9H165c4.7,0,9.1,1.9,12.4,5.2l28.4,27.5c0.5,0.5,1,1.1,1.4,1.7h-57.4V59.9z M64.2,174.5
		c-3.6,9.7-14.3,14.6-24,11.1c-5.1-1.9-9.2-5.9-11.1-11.1c-0.7-2-1.1-4.1-1.1-6.2c0-10.3,8.4-18.7,18.7-18.7s18.7,8.4,18.7,18.7
		C65.4,170.4,65,172.6,64.2,174.5z M137.3,47.5v114.6H77.2c-3.4-16.8-19.8-27.7-36.7-24.3c-12.2,2.5-21.8,12.1-24.3,24.3H6.7
		c-10.3,0-18.7-8.4-18.7-18.7v-112c0-10.3,8.4-18.7,18.7-18.7h112c10.3,0,18.7,8.4,18.7,18.7V47.5z M186.3,174.5
		c-3.5,9.7-14.2,14.7-23.9,11.2c-5.2-1.9-9.3-6-11.2-11.2c-0.7-2-1.1-4.1-1.1-6.2c0.2-10.3,8.7-18.5,19-18.4
		c7.7,0.1,14.5,4.9,17.2,12.1c0.8,2,1.2,4.1,1.2,6.2C187.4,170.4,187,172.5,186.3,174.5L186.3,174.5z M212,155.9
		c0,3.4-2.8,6.2-6.2,6.2h-6.2c-3-14.5-15.7-24.9-30.5-24.9c-6.8,0.1-13.3,2.5-18.7,6.7v-37.3H212v0.7V155.9z"/>
</g>
</svg>
