<!-- <svg width="850" height="850" xmlns="http://www.w3.org/2000/svg">

 <g>
  <title>background</title>
  <rect fill="none" id="canvas_background" height="852" width="852" y="-1" x="-1"/>
 </g>
 <g>
  <title>Layer 1</title>
  <path stroke="null" id="svg_1" d="m774.909238,8.727414l-608,0c-35.346,0 -64,28.654 -64,64l0,640l-96,0l0,64c0,35.347 28.654,64 64,64l608,0c35.346,0 64,-28.653 64,-64l0,-640l96,0l0,-64c0,-35.346 -28.654,-64 -64,-64zm-528,160l160,0c8.836,0 16,7.164 16,16s-7.164,16 -16,16l-160,0c-8.836,0 -16,-7.164 -16,-16s7.164,-16 16,-16zm-176,640c-17.673,0 -32,-14.327 -32,-32l0,-32l544,0l0,32a63.681,63.681 0 0 0 8.583,32l-520.583,0zm528,-224l-352,0c-8.836,0 -16,-7.163 -16,-16s7.164,-16 16,-16l352,0c8.837,0 16,7.163 16,16s-7.163,16 -16,16zm-368,-144c0,-8.837 7.164,-16 16,-16l224,0c8.837,0 16,7.163 16,16s-7.163,16 -16,16l-224,0c-8.836,0 -16,-7.163 -16,-16zm736,32l-720,0c-8.836,0 -16,-7.164 -16,-16s7.164,-16 16,-16l352,0c8.837,0 16,7.164 16,16s-7.163,16 -16,16l368,0zm208,-224l-64,0l0,-32c0,-17.673 14.327,-32 32,-32s32,14.327 32,32l0,32z"/>
 </g>
</svg> -->
<?xml version="1.0" encoding="utf-8"?>
<!-- Generator: Adobe Illustrator 24.1.0, SVG Export Plug-In . SVG Version: 6.00 Build 0)  -->
<svg version="1.1" id="图层_1" xmlns="http://www.w3.org/2000/svg" xmlns:xlink="http://www.w3.org/1999/xlink" x="0px" y="0px"
	 viewBox="0 0 200 200" style="enable-background:new 0 0 200 200;" xml:space="preserve">
<style type="text/css">
	.st0{fill:#FFFFFF;}
</style>
<path class="st0" d="M191,8.9l0.2,0.2l0.2,0.2c6.2,6.3,9.1,15.2,8.8,25.8c-0.3,9.5-3,20.3-8.1,32.1c-4.5,10.6-10.8,21.7-18.6,33
	c7.7,11.2,14,22.4,18.6,33c5,11.8,7.8,22.6,8.1,32.1c0.3,10.6-2.6,19.6-9,26c-6.4,6.4-15.3,9.3-26,9c-9.5-0.3-20.3-3-32.1-8.1
	c-10.6-4.5-21.7-10.8-33-18.6c-11.2,7.7-22.4,14-33,18.6c-11.8,5-22.6,7.8-32.1,8.1c-10.6,0.3-19.6-2.6-26-9c-6.4-6.4-9.3-15.3-9-26
	c0.3-9.5,3-20.3,8.1-32.1c4.5-10.6,10.8-21.7,18.6-33c-7.7-11.2-14-22.4-18.6-33c-5-11.8-7.8-22.6-8.1-32.1
	C-0.1,24.5,2.8,15.6,9,9.3l0.2-0.2l0.2-0.2c6.3-6.2,15.2-9.1,25.8-8.8c9.5,0.3,20.3,3,32.1,8.1c10.6,4.5,21.7,10.8,33,18.6
	c11.2-7.7,22.4-14,33-18.6c11.8-5,22.6-7.8,32.1-8.1C175.8-0.2,184.7,2.7,191,8.9L191,8.9z M37.2,114l-0.2,0.2
	c-5.6,8.7-10.3,17.2-13.7,25.2c-8.4,19.5-8.8,33.9-2.6,40.1c6.2,6.2,20.6,5.8,40.1-2.6c8.1-3.5,16.7-8.2,25.5-13.9
	c-8.8-7-17.5-14.7-26-23.2C51.9,131.5,44.1,122.8,37.2,114L37.2,114z M163.2,114l-0.4,0.5c-6.9,8.6-14.5,17.2-22.8,25.4
	c-8.4,8.4-17.2,16.2-26,23.2c8.8,5.7,17.3,10.4,25.5,13.9c19.5,8.4,33.9,8.8,40.1,2.6c6.2-6.2,5.8-20.6-2.6-40.1
	C173.6,131.4,168.9,122.8,163.2,114L163.2,114z M100.2,46.9l-0.3,0.3c-9.5,7.2-18.9,15.5-28,24.6C62.6,81,54.3,90.6,47,100.1
	c7.3,9.6,15.6,19.1,24.9,28.4c9.2,9.2,18.8,17.6,28.4,24.9c9.6-7.3,19.1-15.6,28.4-24.9c9.2-9.2,17.6-18.8,24.9-28.4
	c-7.3-9.6-15.6-19.1-24.9-28.4C119.3,62.6,109.8,54.2,100.2,46.9z M100.1,88.1c6.6,0,11.9,5.2,12,11.7l0,0.2v0.2
	c0,6.6-5.4,11.9-12,11.9c-6.6,0-11.9-5.2-12-11.7l0-0.2v-0.2C88.1,93.5,93.4,88.1,100.1,88.1z M20.9,20.4l-0.2,0.2l-0.2,0.2
	c-6,6.3-5.5,20.6,2.8,39.9c3.5,8.1,8.2,16.7,13.9,25.5c7-8.8,14.7-17.5,23.2-26c8.4-8.4,17.2-16.2,26-23.2
	C77.5,31.4,69,26.7,60.8,23.2C41.5,14.9,27.2,14.4,20.9,20.4L20.9,20.4z M139.6,23.2c-8.1,3.5-16.7,8.2-25.5,13.9
	c8.8,7,17.5,14.7,26,23.2c8.4,8.4,16.2,17.2,23.2,26c5.7-8.8,10.4-17.3,13.9-25.5c8.3-19.3,8.8-33.7,2.8-39.9l-0.2-0.2l-0.2-0.2
	C173.2,14.4,158.9,14.9,139.6,23.2L139.6,23.2z"/>
</svg>
