<!-- <svg width="1024" height="932" xmlns="http://www.w3.org/2000/svg">

 <g>
  <title>background</title>
  <rect fill="none" id="canvas_background" height="934" width="1026" y="-1" x="-1"/>
 </g>
 <g>
  <title>Layer 1</title>
  <path id="svg_1" d="m1006.1,366.033331l-187.5,-141c0,-0.2 0.1,-0.3 0.1,-0.4l0,-149.9c0,-2.3 -1.9,-4.2 -4.2,-4.2l-92.4,0c-2.3,0 -4.2,1.9 -4.2,4.2l0,74.6l-182.6,-137.2c-7.3,-5.5 -16,-8.4 -25.1,-8.4c-9.2,0 -17.9,2.9 -25.2,8.5l-468.3,353.6c-8.9,6.7 -14.6,16.5 -16.2,27.6c-2.1,14.8 3.8,29.5 16.2,39.3c4.3,3.3 9.2,5.7 14.5,7c13,3.2 25.8,0.6 36,-7.1l437.8,-330.7c3.1,-2.3 7.4,-2.3 10.4,0l441.8,332c7.3,5.5 16,8.4 25.1,8.4c13.7,0 26.3,-6.5 34.2,-17.7c13.3,-18.8 7.9,-44.9 -10.4,-58.6z"/>
  <path id="svg_2" d="m906.7,452.733331l-193.2,-140l-196.7,-142.5c-3.4,-2.5 -8.1,-2.5 -11.5,0l-196.6,142.5l-193.2,140c-5.6,4.1 -9,10.6 -9,17.6l0,392.1c0,35.5 29,64.5 64.5,64.5l246.7,0l0,-257.4c0,-30 24.6,-54.6 54.6,-54.6l77.5,0c30,0 54.6,24.6 54.6,54.6l0,257.4l246.7,0c35.5,0 64.5,-29 64.5,-64.5l0,-392.1c0.1,-6.9 -3.3,-13.5 -8.9,-17.6z"/>
 </g>
</svg> -->
<?xml version="1.0" encoding="utf-8"?>
<!-- Generator: Adobe Illustrator 24.1.0, SVG Export Plug-In . SVG Version: 6.00 Build 0)  -->
<svg version="1.1" id="图层_1" xmlns="http://www.w3.org/2000/svg" xmlns:xlink="http://www.w3.org/1999/xlink" x="0px" y="0px"
	 viewBox="0 0 200 200" style="enable-background:new 0 0 200 200;" xml:space="preserve">
<style type="text/css">
	.st0{fill:#FFFFFF;}
</style>
<g>
	<path class="st0" d="M150.5,200H49.6C30.5,200,15,184.5,15,165.4V97.3c0-3.3,2.7-6,6-6s6,2.7,6,6v68.1c0,12.5,10.2,22.7,22.7,22.7
		h100.9c12.5,0,22.7-10.2,22.7-22.7V97.3c0-3.3,2.7-6,6-6s6,2.7,6,6v68.1C185.1,184.5,169.6,200,150.5,200z"/>
	<path class="st0" d="M119.1,174.1H80.9c-3.3,0-6-2.7-6-6s2.7-6,6-6h38.2c3.3,0,6,2.7,6,6S122.4,174.1,119.1,174.1z M200.6,94.8
		c-1.4,0-2.7-0.5-3.9-1.4l-95.9-81.1c-0.4-0.4-1.1-0.4-1.6,0L3.4,93.4c-2.5,2.1-6.3,1.8-8.4-0.7c-2.1-2.5-1.8-6.3,0.7-8.4L91.6,3.1
		c4.9-4.1,12.1-4.1,17,0l95.9,81.1c2.5,2.1,2.8,5.9,0.7,8.4C203.9,94,202.2,94.8,200.6,94.8z"/>
</g>
</svg>
