<!-- <svg width="950" height="690" xmlns="http://www.w3.org/2000/svg" class="icon">
 <defs>
  <style type="text/css"/>
 </defs>
 <g>
  <title>background</title>
  <rect fill="none" id="canvas_background" height="692" width="952" y="-1" x="-1"/>
 </g>
 <g>
  <title>Layer 1</title>
  <path id="svg_1" d="m858.22222,686.666667l-768,0a85.333333,85.333333 0 0 1 -85.333333,-85.333333l0,-512a84.8,84.8 0 0 1 14.058666,-46.741333l398.933334,388.48a77.226667,77.226667 0 0 0 56.341333,20.928a86.122667,86.122667 0 0 0 56.597333,-20.757334l398.826667,-388.394666a84.821333,84.821333 0 0 1 13.909333,46.485333l0,512a85.333333,85.333333 0 0 1 -85.333333,85.333333zm-384,-306.666666a84.821333,84.821333 0 0 1 -61.866667,-26.986667l-338.944,-349.44l802.389334,0l-339.712,350.058667a95.445333,95.445333 0 0 1 -61.866667,26.368z"/>
 </g>
</svg> -->
<?xml version="1.0" encoding="utf-8"?>
<!-- Generator: Adobe Illustrator 24.1.0, SVG Export Plug-In . SVG Version: 6.00 Build 0)  -->
<svg version="1.1" id="图层_1" xmlns="http://www.w3.org/2000/svg" xmlns:xlink="http://www.w3.org/1999/xlink" x="0px" y="0px"
	 viewBox="0 0 200 200" style="enable-background:new 0 0 200 200;" xml:space="preserve">
<style type="text/css">
	.st0{fill:#FFFFFF;}
</style>
<path class="st0" d="M187.1,100.8l-84.1,43.6c-2.1,1.1-4.5,1.1-6.6,0l-84.1-43.6c-3.5-1.7-7.8-0.2-9.5,3.3c-1.7,3.4-0.4,7.5,3,9.4
	l90.6,47c2.1,1.1,4.5,1.1,6.6,0l90.6-47c3.4-1.9,4.7-6.3,2.8-9.7C194.6,100.4,190.5,99.1,187.1,100.8L187.1,100.8z"/>
<path class="st0" d="M187.1,147.8l-84.1,43.6c-2.1,1.1-4.5,1.1-6.6,0l-84.1-43.6c-3.5-1.8-7.8-0.4-9.6,3.1c-0.5,1-0.8,2.1-0.8,3.2
	c0,2.7,1.5,5.1,3.8,6.3l90.6,47c2.1,1.1,4.5,1.1,6.6,0l90.6-47c2.4-1.2,3.8-3.7,3.8-6.3c0-3.9-3.2-7.1-7.1-7.1
	C189.3,147,188.2,147.2,187.1,147.8L187.1,147.8z M194.3,56.5l-5-2.6L102.6,9C100.9,8,98.8,8,97,9L10.4,53.9l-5,2.6
	c-2,1-3.3,3.1-3.3,5.4c0,2.3,1.3,4.4,3.3,5.4l5,2.6L97,114.9c1.8,0.9,3.8,0.9,5.6,0L189.2,70l5-2.6c2-1.1,3.3-3.2,3.3-5.4
	C197.6,59.6,196.3,57.6,194.3,56.5z M170.6,63.6l-67.9,35.3c-1.8,0.9-3.8,0.9-5.6,0l-68-35.3c-0.9-0.5-1.2-1.6-0.7-2.5
	c0.2-0.3,0.4-0.6,0.7-0.7L97,25c1.8-0.9,3.8-0.9,5.6,0l68,35.3c0.9,0.5,1.2,1.6,0.7,2.5C171.1,63.1,170.9,63.4,170.6,63.6z"/>
</svg>
