<!-- <svg width="900" height="900" xmlns="http://www.w3.org/2000/svg" class="icon">
 <defs>
  <style type="text/css"/>
 </defs>
 <g>
  <title>background</title>
  <rect fill="none" id="canvas_background" height="902" width="902" y="-1" x="-1"/>
 </g>
 <g>
  <title>Layer 1</title>
  <path id="svg_1" d="m672.544852,407.839849l-443.3556,0l0,210.78163l443.3556,0l0,-210.78163zm-314.155,118.06702l-52.88447,0l0,-80.25893l52.88447,0l0,80.25893zm119.49658,55.56962l-52.88549,0l0,-135.82855l52.88549,0l0,135.82855zm118.9839,-30.43006l-52.88549,0l0.00001,-105.39849l52.88548,0l0,105.39849z"/>
  <path id="svg_2" d="m450.868082,2.887909c-246.83169,0 -446.92899,200.09729 -446.92899,446.92898c0,246.83169 200.0973,446.92898 446.92899,446.92898s446.92898,-200.09729 446.92898,-446.92898c0,-246.83271 -200.0973,-446.92898 -446.92898,-446.92898zm244.4965,382.13323l0,22.81871l0,233.61057l-488.99096,0l0,-233.61057l0,-22.82382l0,-126.83369l488.99096,0l0,126.8388z"/>
  <path id="svg_3" d="m672.535642,281.000019l-125.14216,0l0,66.35936l-22.81973,0l0,-66.35936l-146.51903,0l0,66.35936l-22.81768,0l0,-66.35936l-126.04779,0l0,104.01601l443.34639,0l0,-104.01601z"/>
 </g>
</svg> -->
<?xml version="1.0" encoding="utf-8"?>
<!-- Generator: Adobe Illustrator 24.1.0, SVG Export Plug-In . SVG Version: 6.00 Build 0)  -->
<svg version="1.1" id="图层_1" xmlns="http://www.w3.org/2000/svg" xmlns:xlink="http://www.w3.org/1999/xlink" x="0px" y="0px"
	 viewBox="0 0 200 200" style="enable-background:new 0 0 200 200;" xml:space="preserve">
<style type="text/css">
	.st0{fill:#FFFFFF;}
</style>
<g>
	<path class="st0" d="M204.6,55.6H122c-3.1,0-5.6-2.5-5.6-5.6c0-3.1,2.5-5.6,5.6-5.6h82.6c3.1,0,5.6,2.5,5.6,5.6
		C210.1,53.1,207.6,55.6,204.6,55.6L204.6,55.6z M100,55.6H16.7c-3.1,0-5.6-2.5-5.6-5.6c0-3.1,2.5-5.6,5.6-5.6H100
		c3.1,0,5.6,2.5,5.6,5.6C105.6,53.1,103.1,55.6,100,55.6z"/>
	<path class="st0" d="M100,55.6c-3.1,0-5.6-2.5-5.6-5.6v0V11.1c0-3.1,2.5-5.6,5.6-5.6c3.1,0,5.6,2.5,5.6,5.6V50
		C105.6,53.1,103.1,55.6,100,55.6C100,55.6,100,55.6,100,55.6z"/>
	<path class="st0" d="M194.4,200H5.6c-9.2,0-16.7-7.5-16.7-16.7V54.6c0-4.4,1.8-8.6,4.9-11.8L31.7,4.9C34.8,1.7,39.1,0,43.5,0h113
		c4.4,0,8.7,1.8,11.8,4.9l37.9,37.9c3.1,3.1,4.9,7.4,4.9,11.8v128.7C211.1,192.5,203.6,200,194.4,200z M43.5,11.1
		c-1.5,0-2.9,0.6-3.9,1.6L1.6,50.7c-1,1-1.6,2.5-1.6,3.9v128.7c0,3.1,2.5,5.6,5.6,5.6h188.9c3.1,0,5.6-2.5,5.6-5.6V54.6
		c0-1.5-0.6-2.9-1.6-3.9l-37.9-37.9c-1-1-2.5-1.6-3.9-1.6H43.5z"/>
	<path class="st0" d="M99.4,161.1c-1.7,0-3.2-0.8-4.3-2L64,121c-1.9-2.4-1.5-5.9,0.9-7.8c2.4-1.9,5.8-1.5,7.7,0.8l26.9,32.8
		l50.2-61.4c2-2.3,5.5-2.5,7.8-0.5c2.2,1.9,2.5,5.2,0.8,7.5l-54.5,66.7C102.7,160.4,101.1,161.1,99.4,161.1L99.4,161.1z"/>
</g>
</svg>
