<!-- <svg width="850" height="970.0000000000001" xmlns="http://www.w3.org/2000/svg">


 <g>
  <title>background</title>
  <rect fill="none" id="canvas_background" height="972" width="852" y="-1" x="-1"/>
 </g>
 <g>
  <title>Layer 1</title>
  <path id="svg_1" d="m425.333785,212.052438m-210.823529,0a210.823529,210.823529 0 1 0 421.647058,0a210.823529,210.823529 0 1 0 -421.647058,0z"/>
  <path id="svg_2" d="m425.333785,212.052438m-210.823529,0a210.823529,210.823529 0 1 0 421.647058,0a210.823529,210.823529 0 1 0 -421.647058,0z"/>
  <path id="svg_3" d="m576.524373,398.179497a236.122353,236.122353 0 0 1 -301.17647,0l-271.661177,205.402353l0,361.411765l843.294118,0l0,-361.411765l-270.456471,-205.402353z"/>
 </g>
</svg> -->
<?xml version="1.0" encoding="utf-8"?>
<!-- Generator: Adobe Illustrator 24.1.0, SVG Export Plug-In . SVG Version: 6.00 Build 0)  -->
<svg version="1.1" id="图层_1" xmlns="http://www.w3.org/2000/svg" xmlns:xlink="http://www.w3.org/1999/xlink" x="0px" y="0px"
	 viewBox="0 0 200 200" style="enable-background:new 0 0 200 200;" xml:space="preserve">
<style type="text/css">
	.st0{fill:#FFFFFF;}
</style>
<g>
	<path class="st0" d="M148.9,200.5H34.8c-11.8,0-21.4-9.6-21.4-21.4V37.2c0-11.8,9.6-21.4,21.4-21.4h22.6c3.5,0,6.3,2.8,6.3,6.3
		s-2.8,6.3-6.3,6.3H34.8c-4.8,0-8.8,4-8.8,8.8v141.9c0,4.8,4,8.8,8.8,8.8h114.1c3.5,0,6.3,2.8,6.3,6.3S152.3,200.5,148.9,200.5z
		 M175.6,98.9c-3.5,0-6.3-2.8-6.3-6.3V37.2c0-4.8-4-8.8-8.8-8.8h-22.6c-3.5,0-6.3-2.8-6.3-6.3s2.8-6.3,6.3-6.3h22.6
		c11.8,0,21.4,9.6,21.4,21.4v55.4C181.9,96.1,179.1,98.9,175.6,98.9z"/>
	<path class="st0" d="M122.5,43.5H72.2c-11.8,0-21.4-9.6-21.4-21.4S60.4,0.8,72.2,0.8h50.3c11.8,0,21.4,9.6,21.4,21.4
		S134.3,43.5,122.5,43.5z M72.1,13.3c-4.8,0-8.8,4-8.8,8.8s4,8.8,8.8,8.8h50.3c4.8,0,8.8-4,8.8-8.8s-4-8.8-8.8-8.8
		C122.5,13.3,72.1,13.3,72.1,13.3z M129.9,178.7c-24,0-43.5-19.5-43.5-43.5s19.5-43.5,43.5-43.5s43.5,19.5,43.5,43.5
		S154,178.7,129.9,178.7L129.9,178.7z M129.9,104.2c-17.1,0-31,13.9-31,31c0,17.1,13.9,31,31,31s31-13.9,31-31
		C160.9,118.1,147,104.2,129.9,104.2z"/>
	<path class="st0" d="M189.2,200.8c-1.6,0-3.2-0.6-4.4-1.9L151.9,166c-2.5-2.5-2.5-6.4,0-8.9c2.5-2.5,6.4-2.5,8.9,0l32.9,32.9
		c2.5,2.5,2.5,6.4,0,8.9C192.5,200.1,190.8,200.8,189.2,200.8z"/>
</g>
</svg>
